# xmcd
#
# Track frame offsets:
#	150
#	18586
#	34738
#	58181
#	80709
#	99179
#	112098
#	132084
#	155204
#
# Disc length: 2283 seconds
#
# Revision: 1
# Processed by: cddbd v1.5.2PL0 Copyright (c) Steve Scherf et al.
# Submitted via: EZCDAudioConverter 8.0.2.1
#
DISCID=7708e909
DTITLE=Trương Đình Phong - Nửa Kia Đời Tôi
DYEAR=2002
DGENRE=Indie - Alternative
TTITLE0=Luu luyến một nụ hôn
TTITLE1=Vũ điệu xanh
TTITLE2=Chia tay là hết
TTITLE3=Mong mưa thôi rơi
TTITLE4=Kiếp lênh đênh
TTITLE5=Hãy nói yêu anh
TTITLE6=Nửa Kia Đời Tôi
TTITLE7=Nhớ em
TTITLE8=Tình yêu của em
EXTD=
EXTT0=
EXTT1=
EXTT2=
EXTT3=
EXTT4=
EXTT5=
EXTT6=
EXTT7=
EXTT8=
PLAYORDER=
